<?xml version="1.0" encoding="UTF-8" standalone="no"?>
<!-- Generator: Adobe Illustrator 27.0.0, SVG Export Plug-In . SVG Version: 6.00 Build 0)  -->

<svg
   version="1.1"
   id="Layer_1"
   x="0px"
   y="0px"
   viewBox="0 0 500 500"
   style="enable-background:new 0 0 500 500;"
   xml:space="preserve"
   sodipodi:docname="opengist-default.svg"
   inkscape:version="1.3.2 (091e20ef0f, 2023-11-25)"
   xmlns:inkscape="http://www.inkscape.org/namespaces/inkscape"
   xmlns:sodipodi="http://sodipodi.sourceforge.net/DTD/sodipodi-0.dtd"
   xmlns="http://www.w3.org/2000/svg"
   xmlns:svg="http://www.w3.org/2000/svg"><defs
   id="defs8" /><sodipodi:namedview
   id="namedview8"
   pagecolor="#ffffff"
   bordercolor="#000000"
   borderopacity="0.25"
   inkscape:showpageshadow="2"
   inkscape:pageopacity="0.0"
   inkscape:pagecheckerboard="0"
   inkscape:deskcolor="#d1d1d1"
   inkscape:zoom="0.796"
   inkscape:cx="250.62814"
   inkscape:cy="250"
   inkscape:window-width="1920"
   inkscape:window-height="1046"
   inkscape:window-x="0"
   inkscape:window-y="0"
   inkscape:window-maximized="1"
   inkscape:current-layer="layer1" />
<style
   type="text/css"
   id="style1">
	.st0{fill:#FFFFFF;}
</style>
<g
   inkscape:groupmode="layer"
   id="layer1"
   inkscape:label="Layer 1"
   sodipodi:insensitive="true"><rect
     style="fill:#280b0b;stroke-width:3.67453"
     id="rect1"
     width="500.07504"
     height="499.08475"
     x="2.015379"
     y="1.4985321" /></g><g
   id="document"
   transform="matrix(1.6666667,0,0,1.6666667,250,250)"
   style="display:inline">
	<path
   class="st0"
   d="M 131.3,24.3 C 145,-46.7 97.4,-115.2 24.9,-128.6 -47.7,-142 -117.6,-95.3 -131.3,-24.3 -145,46.7 -97.4,115.2 -24.9,128.6 47.7,142 117.6,95.3 131.3,24.3 Z"
   id="path1" />
	<path
   class="st0"
   d="m 128.9,0 c 0,55.7 -36.8,103 -88,119.8 0.2,-1.2 0.3,-2.5 0.3,-4 0.1,-22.3 0.2,-36.2 0.2,-52.8 0,-11.7 -0.2,-18.1 -0.2,-18.1 1.8,0 21.1,-6 29.9,-12.1 8.8,-6.1 18.1,-17.7 19.4,-34.2 1.3,-16.6 -6,-36.2 -12.4,-47.8 -12.8,-23.2 -23.4,-37.4 -32.7,-45.3 -9.3,-7.8 -16.1,-6.1 -22.1,-1.4 -6,4.7 -14.8,19 -21.1,24.7 -3,2.8 -10.6,12 -20.4,3.3 -2.8,-2.4 -19.8,-25.7 -30.3,-22.7 -13.1,3.7 -28.1,27.3 -35.1,43.8 -9,21 -10.8,33.6 -6.1,63.5 4.7,29.9 7.5,60 11.8,76.4 1,4 2.3,7.4 4,10.4 -33.2,-22.8 -55,-60.7 -55,-103.5 0,-69.7 57.7,-126.3 128.9,-126.3 71.2,0 128.9,56.6 128.9,126.3 z"
   id="path2"
   style="fill:#280b0b" />
	<path
   d="m 0,-145 c -81.8,0 -148.1,64.9 -148.1,145 0,80.1 66.3,145 148.1,145 C 81.8,145 148.1,80.1 148.1,0 148.1,-80.1 81.8,-145 0,-145 Z m 40.9,264.8 c 0.2,-1.2 0.3,-2.5 0.3,-4 0.1,-22.3 0.2,-36.2 0.2,-52.8 0,-11.7 -0.2,-18.1 -0.2,-18.1 1.8,0 21.1,-6 29.9,-12.1 8.8,-6.1 18.1,-17.7 19.4,-34.2 1.3,-16.6 -6,-36.2 -12.4,-47.8 -12.8,-23.2 -23.4,-37.4 -32.7,-45.3 -9.3,-7.8 -16.1,-6.1 -22.1,-1.4 -6,4.7 -14.8,19 -21.1,24.7 -3,2.8 -10.6,12 -20.4,3.3 -2.8,-2.4 -19.8,-25.7 -30.3,-22.7 -13.1,3.7 -28.1,27.3 -35.1,43.8 -9,21 -10.8,33.6 -6.1,63.5 4.7,29.9 7.5,60 11.8,76.4 1,4 2.3,7.4 4,10.4 -33.2,-22.8 -55,-60.7 -55,-103.5 0,-69.7 57.7,-126.3 128.9,-126.3 71.2,0 128.9,56.6 128.9,126.3 0,55.7 -36.8,103 -88,119.8 z"
   id="path3"
   style="fill:#ececec;fill-opacity:1" />
	<path
   class="st0"
   d="m -102.8,-7.2 91.2,-9.4 -0.3,-7 -91.2,9.4 z"
   id="path4"
   style="fill:#280b0b" />
	<path
   class="st0"
   d="m 12,-17.3 c 0.8,-9.6 -6.5,-18 -16.3,-18.8 -9.8,-0.8 -18.4,6.4 -19.2,16 -0.8,9.6 6.5,18 16.3,18.8 9.8,0.8 18.4,-6.4 19.2,-16 z"
   id="path5"
   style="fill:#280b0b" />
	<path
   class="st0"
   d="m 62.9,-24.6 c 0.8,-9.6 -6.5,-18 -16.3,-18.8 -9.8,-0.8 -18.4,6.4 -19.2,16 -0.8,9.6 6.5,18 16.3,18.8 9.8,0.8 18.4,-6.4 19.2,-16 z"
   id="path6"
   style="fill:#280b0b" />
	<path
   class="st0"
   d="m -11.8,-16.8 67.6,-7.3 -0.5,-6.3 -67.5,7.3 z"
   id="path7"
   style="fill:#280b0b" />
	<path
   class="st0"
   d="m 53.1,-23.6 49.5,-12.2 -0.6,-6.3 -49.5,12.2 z"
   id="path8"
   style="fill:#280b0b" />
</g>
</svg>
